<svg width="23" height="16" viewBox="0 0 23 16" fill="none" xmlns="http://www.w3.org/2000/svg">
<path d="M11.5 2.5C13.3387 2.49389 15.1419 3.00678 16.7021 3.97973C18.2624 4.95267 19.5164 6.34616 20.32 8C18.67 11.37 15.3 13.5 11.5 13.5C7.7 13.5 4.33 11.37 2.68 8C3.48362 6.34616 4.73763 4.95267 6.29788 3.97973C7.85813 3.00678 9.66126 2.49389 11.5 2.5ZM11.5 0.5C6.5 0.5 2.23 3.61 0.5 8C2.23 12.39 6.5 15.5 11.5 15.5C16.5 15.5 20.77 12.39 22.5 8C20.77 3.61 16.5 0.5 11.5 0.5ZM11.5 5.5C12.163 5.5 12.7989 5.76339 13.2678 6.23223C13.7366 6.70107 14 7.33696 14 8C14 8.66304 13.7366 9.29893 13.2678 9.76777C12.7989 10.2366 12.163 10.5 11.5 10.5C10.837 10.5 10.2011 10.2366 9.73223 9.76777C9.26339 9.29893 9 8.66304 9 8C9 7.33696 9.26339 6.70107 9.73223 6.23223C10.2011 5.76339 10.837 5.5 11.5 5.5ZM11.5 3.5C9.02 3.5 7 5.52 7 8C7 10.48 9.02 12.5 11.5 12.5C13.98 12.5 16 10.48 16 8C16 5.52 13.98 3.5 11.5 3.5Z" fill="#5C5958"/>
</svg>
