<svg width="227" height="23" viewBox="0 0 227 23" fill="none" xmlns="http://www.w3.org/2000/svg">
<path d="M123.403 2.20353C123.433 2.40037 123.417 2.60154 123.356 2.79113C123.295 2.98071 123.191 3.1535 123.052 3.29584C122.913 3.43818 122.742 3.54615 122.554 3.61122C122.366 3.67628 122.165 3.69664 121.968 3.6707H116.195V21.2434C116.226 21.4461 116.208 21.6529 116.144 21.8476C116.08 22.0423 115.972 22.2194 115.828 22.3649C115.684 22.5103 115.507 22.6202 115.313 22.6857C115.119 22.7512 114.913 22.7705 114.71 22.7422C114.509 22.7683 114.305 22.747 114.113 22.6802C113.922 22.6133 113.749 22.5027 113.608 22.3571C113.467 22.2115 113.362 22.0349 113.302 21.8416C113.241 21.6482 113.227 21.4434 113.259 21.2434V3.6707H107.455C107.257 3.69668 107.056 3.67634 106.868 3.61127C106.68 3.54621 106.51 3.43823 106.37 3.29586C106.231 3.1535 106.127 2.98067 106.066 2.79107C106.005 2.60148 105.99 2.40031 106.02 2.20353C105.995 2.0105 106.015 1.81421 106.078 1.63022C106.142 1.44623 106.247 1.27957 106.387 1.14345C106.526 1.00732 106.695 0.90546 106.88 0.845922C107.066 0.786383 107.262 0.770828 107.455 0.800438H121.966C122.158 0.770343 122.355 0.785552 122.541 0.844873C122.727 0.904194 122.896 1.00599 123.036 1.14217C123.175 1.27836 123.281 1.44519 123.345 1.62942C123.409 1.81366 123.429 2.01023 123.403 2.20353Z" fill="#333137"/>
<path d="M147.973 6.92355C147.974 7.74645 147.805 8.56074 147.478 9.3156C147.158 10.0661 146.696 10.7483 146.119 11.3251C145.543 11.9003 144.866 12.3651 144.122 12.6966C143.374 13.0347 142.563 13.2085 141.742 13.2064L147.622 20.3185C147.814 20.5689 147.935 20.8662 147.973 21.1793C147.972 21.3809 147.929 21.5801 147.846 21.764C147.764 21.948 147.644 22.1125 147.494 22.2472C147.352 22.3929 147.184 22.5091 146.997 22.5888C146.811 22.6685 146.61 22.7102 146.407 22.7115C146.205 22.7202 146.006 22.6706 145.831 22.5685C145.664 22.4573 145.514 22.3233 145.384 22.1701L138.032 13.2083H134.005V21.2453C134.005 22.2234 133.537 22.7124 132.601 22.7124C132.402 22.7402 132.199 22.7214 132.008 22.6575C131.817 22.5936 131.644 22.4863 131.502 22.3441C131.36 22.2019 131.253 22.0287 131.189 21.838C131.125 21.6473 131.106 21.4444 131.134 21.2453V2.20908C131.107 2.01828 131.124 1.82377 131.186 1.64101C131.247 1.45825 131.349 1.29225 131.486 1.15611C131.622 1.01998 131.789 0.917461 131.971 0.856689C132.154 0.795917 132.349 0.778544 132.54 0.805964H142.349C143.144 0.797449 143.928 0.983655 144.634 1.34828C145.313 1.69946 145.915 2.18169 146.407 2.76715C146.9 3.35644 147.289 4.02489 147.558 4.74413C147.827 5.43948 147.967 6.17794 147.973 6.92355ZM145.038 6.95512C145.036 6.56199 144.961 6.17272 144.816 5.80739C144.668 5.42759 144.464 5.07249 144.209 4.75436C143.961 4.4422 143.658 4.1776 143.316 3.97341C142.979 3.77272 142.594 3.66801 142.202 3.67067H134.006V10.2721H142.138C142.541 10.2726 142.936 10.1682 143.286 9.96934C143.644 9.7719 143.959 9.50626 144.215 9.18745C144.472 8.86562 144.676 8.50523 144.821 8.11958C144.964 7.74785 145.037 7.35325 145.038 6.95512Z" fill="#333137"/>
<path d="M158.637 2.26759C158.637 1.45729 157.98 0.800415 157.17 0.800415C156.36 0.800415 155.703 1.45729 155.703 2.26759V21.1793C155.703 21.9896 156.36 22.6465 157.17 22.6465C157.98 22.6465 158.637 21.9896 158.637 21.1793V2.26759Z" fill="#333137"/>
<path d="M172.224 8.518C172.229 8.82917 172.338 9.12974 172.533 9.3722C172.728 9.61467 172.998 9.78517 173.301 9.85676C173.604 9.92835 173.922 9.89695 174.205 9.7675C174.488 9.63805 174.72 9.41796 174.864 9.14201L176.02 7.02482L183.152 21.9018L183.164 21.9241L183.215 22.029C183.395 22.3441 183.691 22.5768 184.039 22.6779C184.388 22.7791 184.762 22.7407 185.083 22.571C185.404 22.4013 185.647 22.1136 185.759 21.7685C185.872 21.4234 185.846 21.048 185.687 20.7216L185.698 20.716L175.901 0L172.329 7.9497C172.254 8.12971 172.219 8.32331 172.224 8.518Z" fill="#00D5F2"/>
<path d="M166.364 21.6037C166.364 21.9153 166.469 22.2177 166.661 22.463C166.853 22.7083 167.121 22.8826 167.423 22.9582C167.726 23.0338 168.044 23.0063 168.329 22.8803C168.614 22.7542 168.849 22.5366 168.996 22.2621L169.035 22.1757L169.058 22.1247L172.684 14.0459C172.758 13.8773 172.797 13.6958 172.8 13.512C172.803 13.3282 172.77 13.1456 172.702 12.9746C172.635 12.8036 172.534 12.6476 172.406 12.5155C172.279 12.3833 172.126 12.2777 171.957 12.2045C171.789 12.1313 171.607 12.0921 171.424 12.089C171.24 12.086 171.057 12.1192 170.886 12.1867C170.715 12.2542 170.559 12.3547 170.427 12.4825C170.295 12.6104 170.189 12.7629 170.116 12.9316L166.484 21.0048L166.494 21.0104C166.407 21.1961 166.362 21.3988 166.364 21.6037Z" fill="#333137"/>
<path d="M196.436 2.70594V20.716C196.436 21.782 195.793 22.6456 195 22.6447C194.208 22.6447 193.566 21.7802 193.566 20.716V2.70871C193.566 1.6529 194.185 0.758651 194.971 0.737294C195.948 0.707579 196.436 1.36381 196.436 2.70594Z" fill="#00D5F2"/>
<path d="M194.455 19.9722C194.279 20.0378 194.118 20.1393 193.983 20.2702C193.848 20.4011 193.742 20.5587 193.671 20.7328C193.6 20.907 193.566 21.094 193.572 21.282C193.577 21.4699 193.621 21.6548 193.701 21.8248C193.823 22.0603 194.004 22.2599 194.227 22.4036C194.449 22.5473 194.706 22.6301 194.971 22.6438H204.721C204.921 22.6387 205.119 22.5966 205.304 22.5194C205.481 22.4538 205.642 22.352 205.777 22.2208C205.912 22.0895 206.019 21.9315 206.09 21.7569C206.161 21.5822 206.195 21.3947 206.19 21.2063C206.184 21.0178 206.14 20.8325 206.059 20.6622C205.928 20.411 205.73 20.2011 205.486 20.0562C205.243 19.9112 204.964 19.8368 204.681 19.8413L195.104 19.8311V19.8422C194.881 19.8404 194.66 19.8846 194.455 19.9722Z" fill="#00D5F2"/>
<path d="M216.794 2.70594V20.716C216.794 21.782 216.152 22.6456 215.359 22.6447C214.567 22.6447 213.925 21.7802 213.925 20.716V2.70871C213.925 1.6529 214.544 0.758651 215.329 0.737294C216.306 0.707579 216.794 1.36381 216.794 2.70594Z" fill="#00D5F2"/>
<path d="M214.815 19.9722C214.638 20.0379 214.478 20.1394 214.343 20.2704C214.208 20.4013 214.102 20.5589 214.031 20.733C213.96 20.9071 213.926 21.0941 213.931 21.282C213.936 21.4699 213.98 21.6548 214.061 21.8248C214.182 22.0605 214.363 22.2601 214.586 22.4038C214.809 22.5476 215.066 22.6303 215.331 22.6438H225.081C225.281 22.6387 225.479 22.5965 225.664 22.5194C225.841 22.4538 226.002 22.3521 226.137 22.2208C226.273 22.0895 226.379 21.9315 226.45 21.7568C226.521 21.5821 226.555 21.3946 226.549 21.2061C226.544 21.0177 226.499 20.8324 226.418 20.6622C226.287 20.4109 226.089 20.201 225.846 20.056C225.602 19.9111 225.323 19.8367 225.04 19.8413L215.463 19.8311V19.8422C215.24 19.8405 215.019 19.8848 214.815 19.9722Z" fill="#00D5F2"/>
<path d="M27.9673 21.3066C27.9673 22.4339 27.542 22.9972 26.6914 22.9966C26.389 22.978 26.0969 22.8797 25.8448 22.7118C25.5927 22.5438 25.3895 22.3121 25.2558 22.0402L15.4313 7.11487V21.3066C15.4313 22.3064 14.9528 22.8059 13.9958 22.8053C13.0597 22.8053 12.592 22.3057 12.5927 21.3066V2.27038C12.5927 1.12264 13.0071 0.548767 13.836 0.548767C14.1287 0.574472 14.4104 0.67288 14.6554 0.835042C14.9004 0.997204 15.1011 1.21799 15.2391 1.47736L25.0302 16.4667V2.26667C25.0302 1.87755 25.1848 1.50438 25.4599 1.22923C25.7351 0.95408 26.1082 0.799506 26.4974 0.799506C26.8865 0.799506 27.2597 0.95408 27.5348 1.22923C27.81 1.50438 27.9645 1.87755 27.9645 2.26667L27.9673 21.3066Z" fill="#333137"/>
<path d="M55.0125 11.7346C55.0179 13.1737 54.736 14.5994 54.1832 15.9281C53.6463 17.2321 52.8671 18.4225 51.8869 19.4363C50.9007 20.4519 49.7253 21.2645 48.4269 21.8284C47.0637 22.4204 45.5914 22.7193 44.1053 22.7059H39.0983C38.1202 22.7059 37.6311 22.2379 37.6311 21.3019V2.26293C37.6311 1.32753 38.1202 0.859811 39.0983 0.859811H44.0412C45.4941 0.852568 46.9329 1.14563 48.2672 1.72062C49.5652 2.27422 50.7493 3.06355 51.7596 4.04862C52.7668 5.03882 53.5736 6.21387 54.1359 7.50948C54.7208 8.8409 55.0195 10.2804 55.0125 11.7346ZM52.1738 11.8144C52.1798 10.7351 51.9583 9.66661 51.5238 8.67859C51.1022 7.71853 50.5047 6.84582 49.7622 6.10545C49.0199 5.36748 48.1429 4.77864 47.1789 4.37083C46.1865 3.94546 45.1172 3.72863 44.0375 3.73381H40.5692V19.8394H44.109C45.1851 19.8463 46.2505 19.6247 47.2346 19.1893C48.191 18.7691 49.0615 18.1756 49.8022 17.4389C50.5385 16.7026 51.1283 15.8332 51.5405 14.8769C51.9629 13.9126 52.1795 12.8709 52.1766 11.8182L52.1738 11.8144Z" fill="#333137"/>
<path d="M78.9127 14.6727C78.9175 15.7382 78.6959 16.7925 78.2626 17.7658C77.8389 18.7259 77.2446 19.6012 76.5086 20.3492C75.7756 21.0929 74.9102 21.6932 73.9568 22.1191C72.9893 22.5535 71.9399 22.7752 70.8794 22.7691C69.8087 22.7731 68.7491 22.5516 67.7696 22.1191C66.8028 21.6984 65.9216 21.1039 65.1695 20.365C64.423 19.6284 63.8224 18.7572 63.3996 17.7974C62.9636 16.8135 62.742 15.748 62.7496 14.6718V2.26574C62.7496 1.87662 62.9042 1.50344 63.1793 1.22829C63.4545 0.953144 63.8277 0.798569 64.2168 0.798569C64.6059 0.798569 64.9791 0.953144 65.2542 1.22829C65.5294 1.50344 65.684 1.87662 65.684 2.26574V14.6931C65.6779 15.408 65.8248 16.116 66.1148 16.7695C66.3869 17.387 66.7768 17.9456 67.2626 18.414C67.7406 18.8716 68.297 19.2396 68.9052 19.5005C69.5193 19.7661 70.1816 19.9021 70.8506 19.8998C71.5647 19.9063 72.2718 19.7593 72.9242 19.4689C74.1698 18.9193 75.1572 17.913 75.683 16.6571C75.9472 16.0361 76.0827 15.368 76.0814 14.6931V2.26948C76.0814 1.26907 76.5386 0.768554 77.4529 0.767935C77.6547 0.741373 77.8598 0.762122 78.0521 0.828551C78.2445 0.89498 78.4187 1.00527 78.561 1.15067C78.7034 1.29608 78.8099 1.47259 78.8722 1.66629C78.9345 1.85999 78.9509 2.06554 78.9201 2.26667L78.9127 14.6727Z" fill="#333137"/>
<path d="M99.3685 17.0016C99.3764 17.7941 99.2079 18.5785 98.8754 19.298C98.552 19.993 98.0864 20.6124 97.5086 21.1162C96.9022 21.6396 96.1998 22.0401 95.4406 22.2955C94.6062 22.5787 93.73 22.7191 92.8489 22.7106C92.1154 22.7045 91.3886 22.5693 90.702 22.3113C89.9807 22.0513 89.3046 21.68 88.6981 21.2109C88.1137 20.7649 87.6124 20.2195 87.217 19.5998C86.8437 19.0253 86.6445 18.3552 86.6431 17.6702C86.6431 16.7985 87.1217 16.3627 88.0787 16.3627C88.6526 16.3627 89.0884 16.7341 89.3862 17.477C89.5904 18.2309 90.0467 18.8921 90.6791 19.3505C91.3115 19.8089 92.0819 20.0368 92.8619 19.9963C93.3437 19.9976 93.8226 19.9224 94.2808 19.7734C94.7152 19.6352 95.1233 19.4249 95.4879 19.1513C95.8319 18.8934 96.1195 18.5679 96.333 18.1948C96.5433 17.8314 96.6535 17.4187 96.6524 16.9988C96.6486 16.2831 96.4213 15.5864 96.0024 15.006C95.5297 14.3365 94.9902 13.7167 94.3922 13.1563C93.7539 12.5502 93.0522 11.9497 92.2871 11.3548C91.5504 10.7848 90.8475 10.1724 90.182 9.52082C89.5756 8.93131 89.0354 8.27742 88.5709 7.57077C88.1463 6.93324 87.9201 6.18425 87.9208 5.41829C87.9176 4.79355 88.0594 4.17656 88.335 3.61588C88.614 3.04911 88.9981 2.54052 89.467 2.11715C89.95 1.67869 90.5059 1.32798 91.1096 1.08084C91.7278 0.825026 92.3907 0.69495 93.0597 0.698242C93.627 0.705049 94.1886 0.812921 94.7181 1.01677C95.2812 1.22344 95.8125 1.50788 96.2968 1.86179C96.7551 2.19186 97.1497 2.60246 97.4612 3.0736C97.7466 3.49223 97.902 3.98584 97.9078 4.49248C97.9325 4.68122 97.913 4.87314 97.8507 5.05301C97.7884 5.23289 97.6851 5.39581 97.549 5.52887C97.4129 5.66193 97.2477 5.76148 97.0664 5.81965C96.8852 5.87782 96.6929 5.89302 96.5048 5.86403C96.3593 5.85973 96.2166 5.82319 96.087 5.75702C95.9574 5.69086 95.8442 5.59672 95.7554 5.48143C95.5325 5.22638 95.288 4.94999 95.0218 4.65222C94.7502 4.34923 94.4515 4.07166 94.1294 3.82298C93.7857 3.56338 93.3639 3.42844 92.9334 3.44038C92.3883 3.43858 91.8552 3.60032 91.4031 3.90468C91.1853 4.0341 91.0056 4.21885 90.8823 4.44016C90.759 4.66148 90.6965 4.9115 90.7011 5.16481C90.7225 5.71355 90.9234 6.24009 91.2731 6.66354C91.7678 7.28936 92.3327 7.85641 92.9566 8.35359C94.1854 9.37442 95.1493 10.177 95.8482 10.7614C96.5472 11.3458 96.9709 11.7126 97.1195 11.8618C97.8143 12.5282 98.3707 13.3254 98.7566 14.2074C99.1426 15.0894 99.3505 16.039 99.3685 17.0016Z" fill="#333137"/>
<path d="M2.93345 2.33077C2.93345 1.52046 2.27678 0.863586 1.46674 0.863586C0.656698 0.863586 3.05176e-05 1.52046 3.05176e-05 2.33077V21.2425C3.05176e-05 22.0528 0.656698 22.7097 1.46674 22.7097C2.27678 22.7097 2.93345 22.0528 2.93345 21.2425V2.33077Z" fill="#333137"/>
</svg>
