<svg width="10" height="11" viewBox="0 0 10 11" fill="none" xmlns="http://www.w3.org/2000/svg">
<path d="M9.47266 5.38477C9.47266 5.56706 9.46289 5.72005 9.44336 5.84375C9.42383 5.96745 9.39453 6.06836 9.35547 6.14648C9.31641 6.2181 9.27083 6.27018 9.21875 6.30273C9.16667 6.33529 9.11133 6.35156 9.05273 6.35156H6.01562V9.66211C6.01562 9.72721 5.99935 9.78581 5.9668 9.83789C5.93424 9.88346 5.87891 9.92578 5.80078 9.96484C5.72266 9.9974 5.61849 10.0234 5.48828 10.043C5.35807 10.0625 5.19531 10.0723 5 10.0723C4.80469 10.0723 4.64193 10.0625 4.51172 10.043C4.38151 10.0234 4.27734 9.9974 4.19922 9.96484C4.12109 9.92578 4.0625 9.88346 4.02344 9.83789C3.99089 9.78581 3.97461 9.72721 3.97461 9.66211V6.35156H0.947266C0.888672 6.35156 0.833333 6.33529 0.78125 6.30273C0.735677 6.27018 0.693359 6.2181 0.654297 6.14648C0.615234 6.06836 0.582682 5.96745 0.556641 5.84375C0.537109 5.72005 0.527344 5.56706 0.527344 5.38477C0.527344 5.20898 0.537109 5.05924 0.556641 4.93555C0.576172 4.80534 0.602214 4.70443 0.634766 4.63281C0.673828 4.55469 0.716146 4.49935 0.761719 4.4668C0.807292 4.43424 0.859375 4.41797 0.917969 4.41797H3.97461V1.11719C3.97461 1.05208 3.99089 0.99349 4.02344 0.941406C4.0625 0.882812 4.12109 0.83724 4.19922 0.804688C4.27734 0.765625 4.38151 0.736328 4.51172 0.716797C4.64193 0.697266 4.80469 0.6875 5 0.6875C5.19531 0.6875 5.35807 0.697266 5.48828 0.716797C5.61849 0.736328 5.72266 0.765625 5.80078 0.804688C5.87891 0.83724 5.93424 0.882812 5.9668 0.941406C5.99935 0.99349 6.01562 1.05208 6.01562 1.11719V4.41797H9.08203C9.13411 4.41797 9.18294 4.43424 9.22852 4.4668C9.2806 4.49935 9.32292 4.55469 9.35547 4.63281C9.39453 4.70443 9.42383 4.80534 9.44336 4.93555C9.46289 5.05924 9.47266 5.20898 9.47266 5.38477Z" fill="#312F2F"/>
</svg>
